<mxfile host="app.diagrams.net" modified="2023-10-27T14:31:56.536Z" agent="Mozilla/5.0 (Windows NT 10.0; Win64; x64) AppleWebKit/537.36 (KHTML, like Gecko) Chrome/118.0.0.0 Safari/537.36" etag="eoYpCckH8XPidylVJwO4" version="22.0.8" type="google">
  <diagram name="Page-1" id="Taeu3ICOw6NxqjxFtcOL">
    <mxGraphModel grid="1" page="1" gridSize="10" guides="1" tooltips="1" connect="1" arrows="1" fold="1" pageScale="1" pageWidth="1654" pageHeight="1169" math="0" shadow="0">
      <root>
        <mxCell id="0" />
        <mxCell id="1" parent="0" />
        <mxCell id="t_yVuhkZeliDgT6MfLi4-55" value="You are a coach who guides the user to be more compassionate." style="html=1;align=center;verticalAlign=top;rounded=1;absoluteArcSize=1;arcSize=10;dashed=0;whiteSpace=wrap;fontSize=14;labelBackgroundColor=none;sketch=1;curveFitting=1;jiggle=2;" vertex="1" parent="1">
          <mxGeometry x="200" y="700" width="1040" height="260" as="geometry" />
        </mxCell>
        <mxCell id="t_yVuhkZeliDgT6MfLi4-44" value="None" style="html=1;align=center;verticalAlign=top;rounded=1;absoluteArcSize=1;arcSize=10;dashed=0;whiteSpace=wrap;fontSize=14;labelBackgroundColor=none;sketch=1;curveFitting=1;jiggle=2;" vertex="1" parent="1">
          <mxGeometry x="283.75" y="740" width="576.25" height="210" as="geometry" />
        </mxCell>
        <mxCell id="t_yVuhkZeliDgT6MfLi4-3" value="You are a grumpy assistant. Have a conversation with the user and try to obtain their name." style="html=1;align=center;verticalAlign=top;rounded=1;absoluteArcSize=1;arcSize=10;dashed=0;whiteSpace=wrap;fontSize=14;labelBackgroundColor=none;sketch=1;curveFitting=1;jiggle=2;" vertex="1" parent="1">
          <mxGeometry x="200" y="81.25" width="200" height="80" as="geometry" />
        </mxCell>
        <mxCell id="t_yVuhkZeliDgT6MfLi4-7" value="Name provided&lt;br&gt;[Is real name]&lt;br&gt;/Extract name" style="endArrow=open;html=1;rounded=1;align=center;verticalAlign=bottom;endFill=0;labelBackgroundColor=none;fontSize=14;fontColor=default;sketch=1;curveFitting=1;jiggle=2;" edge="1" parent="1" source="t_yVuhkZeliDgT6MfLi4-3" target="t_yVuhkZeliDgT6MfLi4-11">
          <mxGeometry relative="1" as="geometry">
            <mxPoint x="480" y="-8.75" as="sourcePoint" />
            <mxPoint x="720" y="51.25" as="targetPoint" />
            <mxPoint as="offset" />
          </mxGeometry>
        </mxCell>
        <mxCell id="t_yVuhkZeliDgT6MfLi4-8" value="" style="resizable=0;html=1;align=center;verticalAlign=top;labelBackgroundColor=none;rounded=1;sketch=1;curveFitting=1;jiggle=2;" connectable="0" vertex="1" parent="t_yVuhkZeliDgT6MfLi4-7">
          <mxGeometry relative="1" as="geometry" />
        </mxCell>
        <mxCell id="t_yVuhkZeliDgT6MfLi4-10" value="You are a gumpy flight booking assistant" style="html=1;align=center;verticalAlign=top;rounded=1;absoluteArcSize=1;arcSize=10;dashed=0;whiteSpace=wrap;fontSize=14;labelBackgroundColor=none;sketch=1;curveFitting=1;jiggle=2;" vertex="1" parent="1">
          <mxGeometry x="200" y="240" width="710" height="150" as="geometry" />
        </mxCell>
        <mxCell id="t_yVuhkZeliDgT6MfLi4-11" value="" style="ellipse;html=1;shape=endState;rounded=1;labelBackgroundColor=none;sketch=1;curveFitting=1;jiggle=2;" vertex="1" parent="1">
          <mxGeometry x="520" y="98.75" width="42.5" height="42.5" as="geometry" />
        </mxCell>
        <mxCell id="t_yVuhkZeliDgT6MfLi4-12" value="" style="ellipse;html=1;rounded=1;labelBackgroundColor=none;sketch=1;curveFitting=1;jiggle=2;" vertex="1" parent="1">
          <mxGeometry x="120" y="295" width="40" height="40" as="geometry" />
        </mxCell>
        <mxCell id="t_yVuhkZeliDgT6MfLi4-13" value="" style="endArrow=open;html=1;rounded=1;align=center;verticalAlign=bottom;endFill=0;labelBackgroundColor=none;fontColor=default;sketch=1;curveFitting=1;jiggle=2;" edge="1" parent="1" source="t_yVuhkZeliDgT6MfLi4-12" target="t_yVuhkZeliDgT6MfLi4-10">
          <mxGeometry relative="1" as="geometry">
            <mxPoint x="490" y="450" as="sourcePoint" />
            <mxPoint x="600" y="370" as="targetPoint" />
          </mxGeometry>
        </mxCell>
        <mxCell id="t_yVuhkZeliDgT6MfLi4-14" value="" style="resizable=0;html=1;align=center;verticalAlign=top;labelBackgroundColor=none;rounded=1;sketch=1;curveFitting=1;jiggle=2;" connectable="0" vertex="1" parent="t_yVuhkZeliDgT6MfLi4-13">
          <mxGeometry relative="1" as="geometry">
            <mxPoint y="19" as="offset" />
          </mxGeometry>
        </mxCell>
        <mxCell id="t_yVuhkZeliDgT6MfLi4-16" value="User Exit&lt;br&gt;[ ]&lt;br&gt;/" style="endArrow=open;html=1;rounded=1;align=center;verticalAlign=bottom;endFill=0;labelBackgroundColor=none;fontSize=14;fontColor=default;sketch=1;curveFitting=1;jiggle=2;exitX=1;exitY=0.5;exitDx=0;exitDy=0;" edge="1" parent="1" source="t_yVuhkZeliDgT6MfLi4-10" target="t_yVuhkZeliDgT6MfLi4-18">
          <mxGeometry x="0.28" relative="1" as="geometry">
            <mxPoint x="720" y="345" as="sourcePoint" />
            <mxPoint x="1380" y="370" as="targetPoint" />
            <mxPoint as="offset" />
          </mxGeometry>
        </mxCell>
        <mxCell id="t_yVuhkZeliDgT6MfLi4-17" value="" style="resizable=0;html=1;align=center;verticalAlign=top;labelBackgroundColor=none;rounded=1;sketch=1;curveFitting=1;jiggle=2;" connectable="0" vertex="1" parent="t_yVuhkZeliDgT6MfLi4-16">
          <mxGeometry relative="1" as="geometry" />
        </mxCell>
        <mxCell id="t_yVuhkZeliDgT6MfLi4-18" value="" style="ellipse;html=1;shape=endState;rounded=1;labelBackgroundColor=none;sketch=1;curveFitting=1;jiggle=2;" vertex="1" parent="1">
          <mxGeometry x="972.5" y="293.75" width="42.5" height="42.5" as="geometry" />
        </mxCell>
        <mxCell id="t_yVuhkZeliDgT6MfLi4-19" value="Gather State:&lt;br&gt;Departure, Arrival, Date" style="html=1;align=center;verticalAlign=top;rounded=1;absoluteArcSize=1;arcSize=10;dashed=0;whiteSpace=wrap;fontSize=14;labelBackgroundColor=none;sketch=1;curveFitting=1;jiggle=2;" vertex="1" parent="1">
          <mxGeometry x="293.75" y="314.37" width="160" height="50" as="geometry" />
        </mxCell>
        <mxCell id="t_yVuhkZeliDgT6MfLi4-20" value="Single Choice State:&lt;br&gt;Monkey Air, Thor Airways, ..." style="html=1;align=center;verticalAlign=top;rounded=1;absoluteArcSize=1;arcSize=10;dashed=0;whiteSpace=wrap;fontSize=14;labelBackgroundColor=none;sketch=1;curveFitting=1;jiggle=2;" vertex="1" parent="1">
          <mxGeometry x="573.75" y="310" width="160" height="58.75" as="geometry" />
        </mxCell>
        <mxCell id="t_yVuhkZeliDgT6MfLi4-21" value="" style="ellipse;html=1;rounded=1;labelBackgroundColor=none;sketch=1;curveFitting=1;jiggle=2;" vertex="1" parent="1">
          <mxGeometry x="120" y="100" width="40" height="40" as="geometry" />
        </mxCell>
        <mxCell id="t_yVuhkZeliDgT6MfLi4-22" value="" style="endArrow=open;html=1;rounded=1;align=center;verticalAlign=bottom;endFill=0;labelBackgroundColor=none;fontColor=default;sketch=1;curveFitting=1;jiggle=2;" edge="1" parent="1" source="t_yVuhkZeliDgT6MfLi4-21" target="t_yVuhkZeliDgT6MfLi4-3">
          <mxGeometry relative="1" as="geometry">
            <mxPoint x="290" y="201.25" as="sourcePoint" />
            <mxPoint x="240" y="61.25" as="targetPoint" />
          </mxGeometry>
        </mxCell>
        <mxCell id="t_yVuhkZeliDgT6MfLi4-23" value="" style="resizable=0;html=1;align=center;verticalAlign=top;labelBackgroundColor=none;rounded=1;sketch=1;curveFitting=1;jiggle=2;" connectable="0" vertex="1" parent="t_yVuhkZeliDgT6MfLi4-22">
          <mxGeometry relative="1" as="geometry" />
        </mxCell>
        <mxCell id="t_yVuhkZeliDgT6MfLi4-24" value="Values provided&lt;br&gt;[ ]&lt;br&gt;/Extract values" style="endArrow=open;html=1;rounded=1;align=center;verticalAlign=bottom;endFill=0;labelBackgroundColor=none;fontSize=14;fontColor=default;sketch=1;curveFitting=1;jiggle=2;" edge="1" parent="1" source="t_yVuhkZeliDgT6MfLi4-19" target="t_yVuhkZeliDgT6MfLi4-20">
          <mxGeometry x="-0.0625" relative="1" as="geometry">
            <mxPoint x="1233.75" y="-91.13" as="sourcePoint" />
            <mxPoint x="1483.75" y="-89.63" as="targetPoint" />
            <mxPoint as="offset" />
          </mxGeometry>
        </mxCell>
        <mxCell id="t_yVuhkZeliDgT6MfLi4-25" value="" style="resizable=0;html=1;align=center;verticalAlign=top;labelBackgroundColor=none;rounded=1;sketch=1;curveFitting=1;jiggle=2;" connectable="0" vertex="1" parent="t_yVuhkZeliDgT6MfLi4-24">
          <mxGeometry relative="1" as="geometry" />
        </mxCell>
        <mxCell id="t_yVuhkZeliDgT6MfLi4-26" value="Choice made&lt;br&gt;[ ]&lt;br&gt;/Extract choice" style="endArrow=open;html=1;rounded=1;align=center;verticalAlign=bottom;endFill=0;labelBackgroundColor=none;fontSize=14;fontColor=default;sketch=1;curveFitting=1;jiggle=2;" edge="1" parent="1" source="t_yVuhkZeliDgT6MfLi4-20" target="t_yVuhkZeliDgT6MfLi4-33">
          <mxGeometry x="-0.0625" y="-1" relative="1" as="geometry">
            <mxPoint x="1563.75" y="-61.129999999999995" as="sourcePoint" />
            <mxPoint x="1713.75" y="-61.129999999999995" as="targetPoint" />
            <mxPoint as="offset" />
          </mxGeometry>
        </mxCell>
        <mxCell id="t_yVuhkZeliDgT6MfLi4-27" value="" style="resizable=0;html=1;align=center;verticalAlign=top;labelBackgroundColor=none;rounded=1;sketch=1;curveFitting=1;jiggle=2;" connectable="0" vertex="1" parent="t_yVuhkZeliDgT6MfLi4-26">
          <mxGeometry relative="1" as="geometry" />
        </mxCell>
        <mxCell id="t_yVuhkZeliDgT6MfLi4-30" value="" style="ellipse;html=1;rounded=1;labelBackgroundColor=none;sketch=1;curveFitting=1;jiggle=2;" vertex="1" parent="1">
          <mxGeometry x="213.75" y="319.37" width="40" height="40" as="geometry" />
        </mxCell>
        <mxCell id="t_yVuhkZeliDgT6MfLi4-31" value="" style="endArrow=open;html=1;rounded=1;align=center;verticalAlign=bottom;endFill=0;labelBackgroundColor=none;fontColor=default;sketch=1;curveFitting=1;jiggle=2;" edge="1" parent="1" source="t_yVuhkZeliDgT6MfLi4-30" target="t_yVuhkZeliDgT6MfLi4-19">
          <mxGeometry relative="1" as="geometry">
            <mxPoint x="1143.75" y="79.37" as="sourcePoint" />
            <mxPoint x="1093.75" y="-60.879999999999995" as="targetPoint" />
          </mxGeometry>
        </mxCell>
        <mxCell id="t_yVuhkZeliDgT6MfLi4-32" value="" style="resizable=0;html=1;align=center;verticalAlign=top;labelBackgroundColor=none;rounded=1;sketch=1;curveFitting=1;jiggle=2;" connectable="0" vertex="1" parent="t_yVuhkZeliDgT6MfLi4-31">
          <mxGeometry relative="1" as="geometry" />
        </mxCell>
        <mxCell id="t_yVuhkZeliDgT6MfLi4-33" value="" style="ellipse;html=1;shape=endState;rounded=1;labelBackgroundColor=none;sketch=1;curveFitting=1;jiggle=2;" vertex="1" parent="1">
          <mxGeometry x="853.75" y="318.12" width="42.5" height="42.5" as="geometry" />
        </mxCell>
        <mxCell id="t_yVuhkZeliDgT6MfLi4-34" value="As a fictitious person, you are now to invent something bad that happened to you." style="html=1;align=center;verticalAlign=top;rounded=1;absoluteArcSize=1;arcSize=10;dashed=0;whiteSpace=wrap;fontSize=14;labelBackgroundColor=none;sketch=1;curveFitting=1;jiggle=2;" vertex="1" parent="1">
          <mxGeometry x="370" y="815" width="160" height="80" as="geometry" />
        </mxCell>
        <mxCell id="t_yVuhkZeliDgT6MfLi4-35" value="Compassion&lt;br&gt;Shown&lt;br&gt;[ ]&lt;br&gt;/" style="endArrow=open;html=1;rounded=1;align=center;verticalAlign=bottom;endFill=0;labelBackgroundColor=none;fontSize=14;fontColor=default;sketch=1;curveFitting=1;jiggle=2;" edge="1" parent="1" source="t_yVuhkZeliDgT6MfLi4-34" target="t_yVuhkZeliDgT6MfLi4-40">
          <mxGeometry x="0.1049" y="2" relative="1" as="geometry">
            <mxPoint x="580" y="857.808219178082" as="sourcePoint" />
            <mxPoint x="1722.5" y="1117.5" as="targetPoint" />
            <mxPoint as="offset" />
          </mxGeometry>
        </mxCell>
        <mxCell id="t_yVuhkZeliDgT6MfLi4-36" value="" style="resizable=0;html=1;align=center;verticalAlign=top;labelBackgroundColor=none;rounded=1;sketch=1;curveFitting=1;jiggle=2;" connectable="0" vertex="1" parent="t_yVuhkZeliDgT6MfLi4-35">
          <mxGeometry relative="1" as="geometry" />
        </mxCell>
        <mxCell id="t_yVuhkZeliDgT6MfLi4-37" value="" style="ellipse;html=1;rounded=1;labelBackgroundColor=none;sketch=1;curveFitting=1;jiggle=2;" vertex="1" parent="1">
          <mxGeometry x="300" y="835" width="40" height="40" as="geometry" />
        </mxCell>
        <mxCell id="t_yVuhkZeliDgT6MfLi4-38" value="" style="endArrow=open;html=1;rounded=1;align=center;verticalAlign=bottom;endFill=0;labelBackgroundColor=none;fontColor=default;sketch=1;curveFitting=1;jiggle=2;" edge="1" parent="1" source="t_yVuhkZeliDgT6MfLi4-37" target="t_yVuhkZeliDgT6MfLi4-34">
          <mxGeometry relative="1" as="geometry">
            <mxPoint x="1402.5" y="1258.75" as="sourcePoint" />
            <mxPoint x="1352.5" y="1118.75" as="targetPoint" />
          </mxGeometry>
        </mxCell>
        <mxCell id="t_yVuhkZeliDgT6MfLi4-39" value="" style="resizable=0;html=1;align=center;verticalAlign=top;labelBackgroundColor=none;rounded=1;sketch=1;curveFitting=1;jiggle=2;" connectable="0" vertex="1" parent="t_yVuhkZeliDgT6MfLi4-38">
          <mxGeometry relative="1" as="geometry" />
        </mxCell>
        <mxCell id="t_yVuhkZeliDgT6MfLi4-40" value="As a coach, you tell the user that they have done a good job." style="html=1;align=center;verticalAlign=top;rounded=1;absoluteArcSize=1;arcSize=10;dashed=0;whiteSpace=wrap;fontSize=14;labelBackgroundColor=none;sketch=1;curveFitting=1;jiggle=2;" vertex="1" parent="1">
          <mxGeometry x="602.5" y="815" width="160" height="80" as="geometry" />
        </mxCell>
        <mxCell id="t_yVuhkZeliDgT6MfLi4-41" value="None&lt;br&gt;[ ]&lt;br&gt;/" style="endArrow=open;html=1;rounded=1;align=center;verticalAlign=bottom;endFill=0;labelBackgroundColor=none;fontSize=14;fontColor=default;sketch=1;curveFitting=1;jiggle=2;" edge="1" parent="1" source="t_yVuhkZeliDgT6MfLi4-40" target="t_yVuhkZeliDgT6MfLi4-43">
          <mxGeometry x="-0.0667" relative="1" as="geometry">
            <mxPoint x="1922.5" y="1117.5" as="sourcePoint" />
            <mxPoint x="2102.5" y="1177.5" as="targetPoint" />
            <mxPoint as="offset" />
          </mxGeometry>
        </mxCell>
        <mxCell id="t_yVuhkZeliDgT6MfLi4-42" value="" style="resizable=0;html=1;align=center;verticalAlign=top;labelBackgroundColor=none;rounded=1;sketch=1;curveFitting=1;jiggle=2;" connectable="0" vertex="1" parent="t_yVuhkZeliDgT6MfLi4-41">
          <mxGeometry relative="1" as="geometry" />
        </mxCell>
        <mxCell id="t_yVuhkZeliDgT6MfLi4-43" value="" style="ellipse;html=1;shape=endState;rounded=1;labelBackgroundColor=none;sketch=1;curveFitting=1;jiggle=2;" vertex="1" parent="1">
          <mxGeometry x="810" y="833.75" width="42.5" height="42.5" as="geometry" />
        </mxCell>
        <mxCell id="t_yVuhkZeliDgT6MfLi4-45" value="" style="ellipse;html=1;rounded=1;labelBackgroundColor=none;sketch=1;curveFitting=1;jiggle=2;" vertex="1" parent="1">
          <mxGeometry x="213.75" y="825" width="40" height="40" as="geometry" />
        </mxCell>
        <mxCell id="t_yVuhkZeliDgT6MfLi4-46" value="" style="endArrow=open;html=1;rounded=1;align=center;verticalAlign=bottom;endFill=0;labelBackgroundColor=none;fontColor=default;sketch=1;curveFitting=1;jiggle=2;" edge="1" parent="1" source="t_yVuhkZeliDgT6MfLi4-45" target="t_yVuhkZeliDgT6MfLi4-44">
          <mxGeometry relative="1" as="geometry">
            <mxPoint x="1315" y="1227.5" as="sourcePoint" />
            <mxPoint x="1265" y="1087.5" as="targetPoint" />
          </mxGeometry>
        </mxCell>
        <mxCell id="t_yVuhkZeliDgT6MfLi4-47" value="" style="resizable=0;html=1;align=center;verticalAlign=top;labelBackgroundColor=none;rounded=1;sketch=1;curveFitting=1;jiggle=2;" connectable="0" vertex="1" parent="t_yVuhkZeliDgT6MfLi4-46">
          <mxGeometry relative="1" as="geometry" />
        </mxCell>
        <mxCell id="t_yVuhkZeliDgT6MfLi4-48" value="As a coach, you now tell the user that they have not shown much compassion for the fictitious person so far." style="html=1;align=center;verticalAlign=top;rounded=1;absoluteArcSize=1;arcSize=10;dashed=0;whiteSpace=wrap;fontSize=14;labelBackgroundColor=none;sketch=1;curveFitting=1;jiggle=2;" vertex="1" parent="1">
          <mxGeometry x="980" y="805" width="200" height="80" as="geometry" />
        </mxCell>
        <mxCell id="t_yVuhkZeliDgT6MfLi4-49" value="Lack of&lt;br&gt;&amp;nbsp;Compassion&lt;br&gt;[ ]&lt;br&gt;/" style="endArrow=open;html=1;rounded=1;align=center;verticalAlign=bottom;endFill=0;labelBackgroundColor=none;fontSize=14;fontColor=default;sketch=1;curveFitting=1;jiggle=2;" edge="1" parent="1" source="t_yVuhkZeliDgT6MfLi4-44" target="t_yVuhkZeliDgT6MfLi4-48">
          <mxGeometry relative="1" as="geometry">
            <mxPoint x="2025" y="1087.1" as="sourcePoint" />
            <mxPoint x="2145" y="1087.1" as="targetPoint" />
            <mxPoint as="offset" />
          </mxGeometry>
        </mxCell>
        <mxCell id="t_yVuhkZeliDgT6MfLi4-50" value="" style="resizable=0;html=1;align=center;verticalAlign=top;labelBackgroundColor=none;rounded=1;sketch=1;curveFitting=1;jiggle=2;" connectable="0" vertex="1" parent="t_yVuhkZeliDgT6MfLi4-49">
          <mxGeometry relative="1" as="geometry" />
        </mxCell>
        <mxCell id="t_yVuhkZeliDgT6MfLi4-52" value="None&lt;br&gt;[ ]&lt;br&gt;/" style="endArrow=open;html=1;rounded=1;align=center;verticalAlign=bottom;endFill=0;labelBackgroundColor=none;fontSize=14;fontColor=default;sketch=1;curveFitting=1;jiggle=2;exitX=1;exitY=0.5;exitDx=0;exitDy=0;edgeStyle=orthogonalEdgeStyle;" edge="1" parent="1" source="t_yVuhkZeliDgT6MfLi4-48" target="t_yVuhkZeliDgT6MfLi4-54">
          <mxGeometry x="-0.8672" relative="1" as="geometry">
            <mxPoint x="2345" y="1087.1" as="sourcePoint" />
            <mxPoint x="2495" y="1087.1" as="targetPoint" />
            <Array as="points">
              <mxPoint x="1230" y="845" />
              <mxPoint x="1230" y="930" />
            </Array>
            <mxPoint as="offset" />
          </mxGeometry>
        </mxCell>
        <mxCell id="t_yVuhkZeliDgT6MfLi4-53" value="" style="resizable=0;html=1;align=center;verticalAlign=top;labelBackgroundColor=none;rounded=1;sketch=1;curveFitting=1;jiggle=2;" connectable="0" vertex="1" parent="t_yVuhkZeliDgT6MfLi4-52">
          <mxGeometry relative="1" as="geometry" />
        </mxCell>
        <mxCell id="t_yVuhkZeliDgT6MfLi4-54" value="H*" style="ellipse;html=1;sketch=1;hachureGap=4;jiggle=2;curveFitting=1;fontFamily=Architects Daughter;fontSource=https%3A%2F%2Ffonts.googleapis.com%2Fcss%3Ffamily%3DArchitects%2BDaughter;fontSize=20;rounded=1;" vertex="1" parent="1">
          <mxGeometry x="790" y="900" width="40" height="40" as="geometry" />
        </mxCell>
        <mxCell id="t_yVuhkZeliDgT6MfLi4-56" value="You are a physician specializing in chronic disease." style="html=1;align=center;verticalAlign=top;rounded=1;absoluteArcSize=1;arcSize=10;dashed=0;whiteSpace=wrap;fontSize=14;labelBackgroundColor=none;sketch=1;curveFitting=1;jiggle=2;" vertex="1" parent="1">
          <mxGeometry x="200" y="480" width="710" height="150" as="geometry" />
        </mxCell>
        <mxCell id="t_yVuhkZeliDgT6MfLi4-57" value="" style="ellipse;html=1;rounded=1;labelBackgroundColor=none;sketch=1;curveFitting=1;jiggle=2;" vertex="1" parent="1">
          <mxGeometry x="120" y="540" width="40" height="40" as="geometry" />
        </mxCell>
        <mxCell id="t_yVuhkZeliDgT6MfLi4-58" value="" style="endArrow=open;html=1;rounded=1;align=center;verticalAlign=bottom;endFill=0;labelBackgroundColor=none;fontColor=default;sketch=1;curveFitting=1;jiggle=2;" edge="1" parent="1" source="t_yVuhkZeliDgT6MfLi4-57" target="t_yVuhkZeliDgT6MfLi4-56">
          <mxGeometry relative="1" as="geometry">
            <mxPoint x="890" y="1012.5" as="sourcePoint" />
            <mxPoint x="1000" y="932.5" as="targetPoint" />
          </mxGeometry>
        </mxCell>
        <mxCell id="t_yVuhkZeliDgT6MfLi4-59" value="" style="resizable=0;html=1;align=center;verticalAlign=top;labelBackgroundColor=none;rounded=1;sketch=1;curveFitting=1;jiggle=2;" connectable="0" vertex="1" parent="t_yVuhkZeliDgT6MfLi4-58">
          <mxGeometry relative="1" as="geometry" />
        </mxCell>
        <mxCell id="t_yVuhkZeliDgT6MfLi4-60" value="User Exit&lt;br&gt;[ ]&lt;br&gt;/" style="endArrow=open;html=1;rounded=1;align=center;verticalAlign=bottom;endFill=0;labelBackgroundColor=none;fontSize=14;fontColor=default;sketch=1;curveFitting=1;jiggle=2;" edge="1" parent="1" source="t_yVuhkZeliDgT6MfLi4-56" target="t_yVuhkZeliDgT6MfLi4-62">
          <mxGeometry x="0.28" relative="1" as="geometry">
            <mxPoint x="860" y="1030" as="sourcePoint" />
            <mxPoint x="1780" y="932.5" as="targetPoint" />
            <mxPoint as="offset" />
          </mxGeometry>
        </mxCell>
        <mxCell id="t_yVuhkZeliDgT6MfLi4-61" value="" style="resizable=0;html=1;align=center;verticalAlign=top;labelBackgroundColor=none;rounded=1;sketch=1;curveFitting=1;jiggle=2;" connectable="0" vertex="1" parent="t_yVuhkZeliDgT6MfLi4-60">
          <mxGeometry relative="1" as="geometry" />
        </mxCell>
        <mxCell id="t_yVuhkZeliDgT6MfLi4-62" value="" style="ellipse;html=1;shape=endState;rounded=1;labelBackgroundColor=none;sketch=1;curveFitting=1;jiggle=2;" vertex="1" parent="1">
          <mxGeometry x="972.5" y="533.75" width="42.5" height="42.5" as="geometry" />
        </mxCell>
        <mxCell id="t_yVuhkZeliDgT6MfLi4-63" value="Cause Assessment:&lt;br&gt;{Patient didn&#39;t swim}" style="html=1;align=center;verticalAlign=top;rounded=1;absoluteArcSize=1;arcSize=10;dashed=0;whiteSpace=wrap;fontSize=14;labelBackgroundColor=none;sketch=1;curveFitting=1;jiggle=2;" vertex="1" parent="1">
          <mxGeometry x="293.75" y="555" width="160" height="50" as="geometry" />
        </mxCell>
        <mxCell id="t_yVuhkZeliDgT6MfLi4-64" value="Action Agreement:&lt;br&gt;[Aqua Fit, Open Water]" style="html=1;align=center;verticalAlign=top;rounded=1;absoluteArcSize=1;arcSize=10;dashed=0;whiteSpace=wrap;fontSize=14;labelBackgroundColor=none;sketch=1;curveFitting=1;jiggle=2;" vertex="1" parent="1">
          <mxGeometry x="573.75" y="555" width="160" height="50" as="geometry" />
        </mxCell>
        <mxCell id="t_yVuhkZeliDgT6MfLi4-65" value="Reason provided&lt;br&gt;[Is valid reason]&lt;br&gt;/ Extract reason" style="endArrow=open;html=1;rounded=1;align=center;verticalAlign=bottom;endFill=0;labelBackgroundColor=none;fontSize=14;fontColor=default;sketch=1;curveFitting=1;jiggle=2;" edge="1" parent="1" source="t_yVuhkZeliDgT6MfLi4-63" target="t_yVuhkZeliDgT6MfLi4-64">
          <mxGeometry x="-0.0625" relative="1" as="geometry">
            <mxPoint x="1070" y="872" as="sourcePoint" />
            <mxPoint x="1320" y="873.5" as="targetPoint" />
            <mxPoint as="offset" />
          </mxGeometry>
        </mxCell>
        <mxCell id="t_yVuhkZeliDgT6MfLi4-66" value="" style="resizable=0;html=1;align=center;verticalAlign=top;labelBackgroundColor=none;rounded=1;sketch=1;curveFitting=1;jiggle=2;" connectable="0" vertex="1" parent="t_yVuhkZeliDgT6MfLi4-65">
          <mxGeometry relative="1" as="geometry" />
        </mxCell>
        <mxCell id="t_yVuhkZeliDgT6MfLi4-67" value="Aggreement given&lt;br&gt;[ ]&lt;br&gt;/ Extract action" style="endArrow=open;html=1;rounded=1;align=center;verticalAlign=bottom;endFill=0;labelBackgroundColor=none;fontSize=14;fontColor=default;sketch=1;curveFitting=1;jiggle=2;" edge="1" parent="1" source="t_yVuhkZeliDgT6MfLi4-64" target="t_yVuhkZeliDgT6MfLi4-72">
          <mxGeometry x="-0.0625" relative="1" as="geometry">
            <mxPoint x="1400" y="917" as="sourcePoint" />
            <mxPoint x="1550" y="917" as="targetPoint" />
            <mxPoint as="offset" />
          </mxGeometry>
        </mxCell>
        <mxCell id="t_yVuhkZeliDgT6MfLi4-68" value="" style="resizable=0;html=1;align=center;verticalAlign=top;labelBackgroundColor=none;rounded=1;sketch=1;curveFitting=1;jiggle=2;" connectable="0" vertex="1" parent="t_yVuhkZeliDgT6MfLi4-67">
          <mxGeometry relative="1" as="geometry" />
        </mxCell>
        <mxCell id="t_yVuhkZeliDgT6MfLi4-69" value="" style="ellipse;html=1;rounded=1;labelBackgroundColor=none;sketch=1;curveFitting=1;jiggle=2;" vertex="1" parent="1">
          <mxGeometry x="213.75" y="560" width="40" height="40" as="geometry" />
        </mxCell>
        <mxCell id="t_yVuhkZeliDgT6MfLi4-70" value="" style="endArrow=open;html=1;rounded=1;align=center;verticalAlign=bottom;endFill=0;labelBackgroundColor=none;fontColor=default;sketch=1;curveFitting=1;jiggle=2;" edge="1" parent="1" source="t_yVuhkZeliDgT6MfLi4-69" target="t_yVuhkZeliDgT6MfLi4-63">
          <mxGeometry relative="1" as="geometry">
            <mxPoint x="980" y="1042.5" as="sourcePoint" />
            <mxPoint x="930" y="902.25" as="targetPoint" />
          </mxGeometry>
        </mxCell>
        <mxCell id="t_yVuhkZeliDgT6MfLi4-71" value="" style="resizable=0;html=1;align=center;verticalAlign=top;labelBackgroundColor=none;rounded=1;sketch=1;curveFitting=1;jiggle=2;" connectable="0" vertex="1" parent="t_yVuhkZeliDgT6MfLi4-70">
          <mxGeometry relative="1" as="geometry" />
        </mxCell>
        <mxCell id="t_yVuhkZeliDgT6MfLi4-72" value="" style="ellipse;html=1;shape=endState;rounded=1;labelBackgroundColor=none;sketch=1;curveFitting=1;jiggle=2;" vertex="1" parent="1">
          <mxGeometry x="853.75" y="558.75" width="42.5" height="42.5" as="geometry" />
        </mxCell>
        <mxCell id="_zPzAHi0EjHAPYc4XNFJ-1" value="" style="ellipse;html=1;rounded=1;labelBackgroundColor=none;sketch=1;curveFitting=1;jiggle=2;" vertex="1" parent="1">
          <mxGeometry x="120" y="810" width="40" height="40" as="geometry" />
        </mxCell>
        <mxCell id="_zPzAHi0EjHAPYc4XNFJ-2" value="" style="endArrow=open;html=1;rounded=1;align=center;verticalAlign=bottom;endFill=0;labelBackgroundColor=none;fontColor=default;sketch=1;curveFitting=1;jiggle=2;" edge="1" parent="1" source="_zPzAHi0EjHAPYc4XNFJ-1" target="t_yVuhkZeliDgT6MfLi4-55">
          <mxGeometry relative="1" as="geometry">
            <mxPoint x="1235" y="1207.5" as="sourcePoint" />
            <mxPoint x="1185" y="1067.5" as="targetPoint" />
          </mxGeometry>
        </mxCell>
        <mxCell id="_zPzAHi0EjHAPYc4XNFJ-3" value="" style="resizable=0;html=1;align=center;verticalAlign=top;labelBackgroundColor=none;rounded=1;sketch=1;curveFitting=1;jiggle=2;" connectable="0" vertex="1" parent="_zPzAHi0EjHAPYc4XNFJ-2">
          <mxGeometry relative="1" as="geometry" />
        </mxCell>
        <mxCell id="8K9zorLnIGQ2ZMtBScJn-4" value="User Exit&lt;br&gt;[ ]&lt;br&gt;/" style="endArrow=open;html=1;rounded=1;align=center;verticalAlign=bottom;endFill=0;labelBackgroundColor=none;fontSize=14;fontColor=default;sketch=1;curveFitting=1;jiggle=2;" edge="1" parent="1" target="8K9zorLnIGQ2ZMtBScJn-6">
          <mxGeometry x="0.28" relative="1" as="geometry">
            <mxPoint x="1240" y="831.25" as="sourcePoint" />
            <mxPoint x="2110" y="1208.75" as="targetPoint" />
            <mxPoint as="offset" />
          </mxGeometry>
        </mxCell>
        <mxCell id="8K9zorLnIGQ2ZMtBScJn-5" value="" style="resizable=0;html=1;align=center;verticalAlign=top;labelBackgroundColor=none;rounded=1;sketch=1;curveFitting=1;jiggle=2;" connectable="0" vertex="1" parent="8K9zorLnIGQ2ZMtBScJn-4">
          <mxGeometry relative="1" as="geometry" />
        </mxCell>
        <mxCell id="8K9zorLnIGQ2ZMtBScJn-6" value="" style="ellipse;html=1;shape=endState;rounded=1;labelBackgroundColor=none;sketch=1;curveFitting=1;jiggle=2;" vertex="1" parent="1">
          <mxGeometry x="1302.5" y="810" width="42.5" height="42.5" as="geometry" />
        </mxCell>
      </root>
    </mxGraphModel>
  </diagram>
</mxfile>
